<svg xmlns="http://www.w3.org/2000/svg" xmlns:xlink="http://www.w3.org/1999/xlink" width="150" zoomAndPan="magnify" viewBox="0 0 112.5 112.499997" height="150" preserveAspectRatio="xMidYMid meet" version="1.0"><defs><g/><clipPath id="e593960798"><path d="M 0.1875 52 L 26 52 L 26 64 L 0.1875 64 Z M 0.1875 52 " clip-rule="nonzero"/></clipPath><clipPath id="e6cd4aa061"><rect x="0" width="91" y="0" height="103"/></clipPath><clipPath id="cd7d10963f"><path d="M 21.285156 18 L 57.871094 18 L 57.871094 46.214844 L 21.285156 46.214844 Z M 21.285156 18 " clip-rule="nonzero"/></clipPath><clipPath id="b1fff9a5a9"><rect x="0" width="40" y="0" height="12"/></clipPath></defs><g transform="matrix(1, 0, 0, 1, 12, -0.000000000000000624)"><g clip-path="url(#e6cd4aa061)"><g clip-path="url(#e593960798)"><g fill="#9e0000" fill-opacity="1"><g transform="translate(2.122889, 62.823222)"><g><path d="M 2.5625 0.640625 C -0.207031 0.640625 -1.59375 -0.335938 -1.59375 -2.296875 C -1.59375 -2.492188 -1.582031 -2.671875 -1.5625 -2.828125 C -1.539062 -2.992188 -1.515625 -3.148438 -1.484375 -3.296875 C -1.378906 -3.941406 -1.132812 -4.609375 -0.75 -5.296875 C -0.363281 -5.992188 0.109375 -6.65625 0.671875 -7.28125 C 1.242188 -7.90625 1.859375 -8.46875 2.515625 -8.96875 C 3.171875 -9.476562 3.828125 -9.878906 4.484375 -10.171875 C 5.148438 -10.460938 5.78125 -10.609375 6.375 -10.609375 C 6.957031 -10.609375 7.421875 -10.457031 7.765625 -10.15625 C 8.109375 -9.863281 8.28125 -9.472656 8.28125 -8.984375 C 8.28125 -8.609375 8.179688 -8.207031 7.984375 -7.78125 C 7.796875 -7.351562 7.539062 -6.945312 7.21875 -6.5625 C 6.894531 -6.1875 6.53125 -5.882812 6.125 -5.65625 C 5.988281 -5.582031 5.859375 -5.546875 5.734375 -5.546875 C 5.523438 -5.546875 5.347656 -5.617188 5.203125 -5.765625 C 5.054688 -5.910156 4.984375 -6.085938 4.984375 -6.296875 C 4.984375 -6.585938 5.109375 -6.800781 5.359375 -6.9375 C 5.597656 -7.070312 5.820312 -7.253906 6.03125 -7.484375 C 6.25 -7.710938 6.425781 -7.953125 6.5625 -8.203125 C 6.695312 -8.453125 6.765625 -8.660156 6.765625 -8.828125 C 6.796875 -9.015625 6.664062 -9.109375 6.375 -9.109375 C 5.9375 -9.109375 5.445312 -8.976562 4.90625 -8.71875 C 4.363281 -8.46875 3.820312 -8.128906 3.28125 -7.703125 C 2.75 -7.273438 2.25 -6.796875 1.78125 -6.265625 C 1.3125 -5.734375 0.914062 -5.1875 0.59375 -4.625 C 0.269531 -4.070312 0.0546875 -3.546875 -0.046875 -3.046875 C -0.0859375 -2.785156 -0.109375 -2.535156 -0.109375 -2.296875 C -0.109375 -1.753906 0.0820312 -1.375 0.46875 -1.15625 C 0.863281 -0.945312 1.5625 -0.84375 2.5625 -0.84375 C 3.75 -0.84375 5.117188 -1.023438 6.671875 -1.390625 C 8.234375 -1.765625 9.882812 -2.28125 11.625 -2.9375 C 13.375 -3.601562 15.140625 -4.390625 16.921875 -5.296875 C 18.710938 -6.210938 20.4375 -7.207031 22.09375 -8.28125 C 22.21875 -8.363281 22.359375 -8.40625 22.515625 -8.40625 C 22.722656 -8.40625 22.894531 -8.332031 23.03125 -8.1875 C 23.175781 -8.039062 23.25 -7.863281 23.25 -7.65625 C 23.25 -7.375 23.132812 -7.171875 22.90625 -7.046875 C 21.207031 -5.921875 19.429688 -4.890625 17.578125 -3.953125 C 15.734375 -3.015625 13.898438 -2.203125 12.078125 -1.515625 C 10.253906 -0.835938 8.523438 -0.3125 6.890625 0.0625 C 5.265625 0.445312 3.820312 0.640625 2.5625 0.640625 Z M 2.5625 0.640625 "/></g></g></g></g><g fill="#9e0000" fill-opacity="1"><g transform="translate(22.521248, 62.823222)"><g><path d="M 29.484375 -8.40625 C 29.679688 -8.40625 29.851562 -8.328125 30 -8.171875 C 30.15625 -8.023438 30.234375 -7.851562 30.234375 -7.65625 C 30.234375 -7.394531 30.125 -7.191406 29.90625 -7.046875 C 28.851562 -6.296875 27.691406 -5.5625 26.421875 -4.84375 C 25.148438 -4.125 23.851562 -3.457031 22.53125 -2.84375 C 21.207031 -2.226562 19.910156 -1.6875 18.640625 -1.21875 C 17.378906 -0.75 16.226562 -0.382812 15.1875 -0.125 C 14.15625 0.132812 13.300781 0.265625 12.625 0.265625 C 11.46875 0.265625 10.582031 0.0078125 9.96875 -0.5 C 9.351562 -1.007812 9.046875 -1.75 9.046875 -2.71875 C 9.046875 -3.5 9.226562 -4.296875 9.59375 -5.109375 C 9.957031 -5.929688 10.375 -6.710938 10.84375 -7.453125 C 10.957031 -7.628906 10.984375 -7.742188 10.921875 -7.796875 C 10.859375 -7.859375 10.742188 -7.828125 10.578125 -7.703125 C 10.441406 -7.609375 10.304688 -7.507812 10.171875 -7.40625 C 10.035156 -7.300781 9.890625 -7.191406 9.734375 -7.078125 C 8.941406 -6.515625 8.085938 -5.90625 7.171875 -5.25 C 6.253906 -4.59375 5.320312 -3.945312 4.375 -3.3125 C 3.4375 -2.6875 2.515625 -2.113281 1.609375 -1.59375 C 0.710938 -1.082031 -0.113281 -0.671875 -0.875 -0.359375 C -1.644531 -0.046875 -2.300781 0.109375 -2.84375 0.109375 C -3.40625 0.109375 -3.859375 -0.0390625 -4.203125 -0.34375 C -4.546875 -0.65625 -4.71875 -1.066406 -4.71875 -1.578125 C -4.71875 -2.128906 -4.503906 -2.722656 -4.078125 -3.359375 C -3.648438 -3.992188 -3.078125 -4.632812 -2.359375 -5.28125 C -1.648438 -5.925781 -0.863281 -6.546875 0 -7.140625 C 0.863281 -7.734375 1.738281 -8.265625 2.625 -8.734375 C 3.519531 -9.203125 4.363281 -9.570312 5.15625 -9.84375 C 5.957031 -10.113281 6.628906 -10.25 7.171875 -10.25 C 7.828125 -10.25 8.359375 -10.148438 8.765625 -9.953125 C 9.171875 -9.753906 9.515625 -9.425781 9.796875 -8.96875 C 10.578125 -9.53125 11.191406 -9.96875 11.640625 -10.28125 C 12.097656 -10.59375 12.445312 -10.804688 12.6875 -10.921875 C 12.9375 -11.035156 13.140625 -11.09375 13.296875 -11.09375 C 13.546875 -11.09375 13.753906 -11.007812 13.921875 -10.84375 C 14.097656 -10.6875 14.1875 -10.484375 14.1875 -10.234375 C 14.1875 -9.992188 14.085938 -9.710938 13.890625 -9.390625 C 13.703125 -9.066406 13.441406 -8.664062 13.109375 -8.1875 C 12.753906 -7.65625 12.375 -7.078125 11.96875 -6.453125 C 11.570312 -5.828125 11.234375 -5.191406 10.953125 -4.546875 C 10.679688 -3.898438 10.546875 -3.289062 10.546875 -2.71875 C 10.546875 -2.1875 10.707031 -1.800781 11.03125 -1.5625 C 11.351562 -1.332031 11.882812 -1.21875 12.625 -1.21875 C 13.207031 -1.21875 13.972656 -1.332031 14.921875 -1.5625 C 15.878906 -1.800781 16.953125 -2.132812 18.140625 -2.5625 C 19.328125 -2.988281 20.554688 -3.492188 21.828125 -4.078125 C 23.109375 -4.671875 24.367188 -5.316406 25.609375 -6.015625 C 26.859375 -6.722656 28.007812 -7.472656 29.0625 -8.265625 C 29.164062 -8.359375 29.304688 -8.40625 29.484375 -8.40625 Z M 8.578125 -8.09375 C 8.421875 -8.375 8.253906 -8.554688 8.078125 -8.640625 C 7.898438 -8.722656 7.597656 -8.765625 7.171875 -8.765625 C 6.660156 -8.765625 6.046875 -8.632812 5.328125 -8.375 C 4.617188 -8.125 3.875 -7.785156 3.09375 -7.359375 C 2.3125 -6.941406 1.546875 -6.476562 0.796875 -5.96875 C 0.0546875 -5.457031 -0.613281 -4.9375 -1.21875 -4.40625 C -1.832031 -3.882812 -2.320312 -3.390625 -2.6875 -2.921875 C -3.050781 -2.453125 -3.234375 -2.054688 -3.234375 -1.734375 C -3.234375 -1.503906 -3.101562 -1.390625 -2.84375 -1.390625 C -2.175781 -1.390625 -1.28125 -1.6875 -0.15625 -2.28125 C 0.96875 -2.875 2.269531 -3.675781 3.75 -4.6875 C 5.238281 -5.707031 6.847656 -6.84375 8.578125 -8.09375 Z M 8.578125 -8.09375 "/></g></g></g><g fill="#9e0000" fill-opacity="1"><g transform="translate(49.898557, 62.823222)"><g><path d="M 18.078125 -8.40625 C 18.285156 -8.40625 18.460938 -8.332031 18.609375 -8.1875 C 18.753906 -8.039062 18.828125 -7.863281 18.828125 -7.65625 C 18.828125 -7.394531 18.71875 -7.191406 18.5 -7.046875 C 16.914062 -5.941406 15.359375 -5.046875 13.828125 -4.359375 C 12.296875 -3.671875 10.789062 -3.144531 9.3125 -2.78125 C 7.84375 -2.425781 6.390625 -2.1875 4.953125 -2.0625 C 3.523438 -1.945312 2.128906 -1.890625 0.765625 -1.890625 C 0.503906 -1.890625 0.207031 -1.898438 -0.125 -1.921875 C -0.457031 -1.941406 -0.800781 -1.960938 -1.15625 -1.984375 C -2.988281 0.472656 -4.789062 2.921875 -6.5625 5.359375 C -8.332031 7.804688 -10.019531 10.1875 -11.625 12.5 C -13.238281 14.820312 -14.726562 17.023438 -16.09375 19.109375 C -17.46875 21.191406 -18.679688 23.101562 -19.734375 24.84375 C -19.585938 25.03125 -19.601562 25.285156 -19.78125 25.609375 C -20.601562 27.203125 -21.300781 28 -21.875 28 C -22.195312 28 -22.421875 27.894531 -22.546875 27.6875 C -22.671875 27.476562 -22.679688 27.203125 -22.578125 26.859375 C -22.546875 26.742188 -22.5 26.628906 -22.4375 26.515625 C -22.375 26.398438 -22.304688 26.28125 -22.234375 26.15625 C -21.253906 24.46875 -20.070312 22.546875 -18.6875 20.390625 C -17.3125 18.242188 -15.78125 15.9375 -14.09375 13.46875 C -12.40625 11.007812 -10.609375 8.453125 -8.703125 5.796875 C -6.796875 3.148438 -4.84375 0.492188 -2.84375 -2.171875 C -3.863281 -2.328125 -4.972656 -2.546875 -6.171875 -2.828125 C -7.367188 -3.109375 -8.578125 -3.460938 -9.796875 -3.890625 C -10.140625 -4.003906 -10.3125 -4.238281 -10.3125 -4.59375 C -10.3125 -4.800781 -10.238281 -4.976562 -10.09375 -5.125 C -9.945312 -5.269531 -9.769531 -5.34375 -9.5625 -5.34375 C -9.507812 -5.34375 -9.460938 -5.335938 -9.421875 -5.328125 C -9.378906 -5.328125 -9.335938 -5.316406 -9.296875 -5.296875 C -7.941406 -4.828125 -6.617188 -4.453125 -5.328125 -4.171875 C -4.035156 -3.890625 -2.867188 -3.6875 -1.828125 -3.5625 C -1.242188 -4.332031 -0.65625 -5.097656 -0.0625 -5.859375 C 0.519531 -6.628906 1.109375 -7.390625 1.703125 -8.140625 C 1.703125 -8.234375 1.75 -8.300781 1.84375 -8.34375 L 1.859375 -8.359375 C 5.109375 -12.554688 8.113281 -16.304688 10.875 -19.609375 C 13.632812 -22.921875 16.101562 -25.734375 18.28125 -28.046875 C 20.46875 -30.359375 22.3125 -32.117188 23.8125 -33.328125 C 25.320312 -34.535156 26.445312 -35.140625 27.1875 -35.140625 C 27.675781 -35.140625 28.070312 -35 28.375 -34.71875 C 28.6875 -34.445312 28.84375 -34.097656 28.84375 -33.671875 C 28.84375 -33.242188 28.628906 -32.625 28.203125 -31.8125 C 27.773438 -31.007812 27.164062 -30.066406 26.375 -28.984375 C 25.59375 -27.898438 24.671875 -26.722656 23.609375 -25.453125 C 22.546875 -24.191406 21.375 -22.878906 20.09375 -21.515625 C 18.820312 -20.160156 17.46875 -18.800781 16.03125 -17.4375 C 14.601562 -16.082031 13.140625 -14.769531 11.640625 -13.5 C 10.148438 -12.226562 8.648438 -11.050781 7.140625 -9.96875 C 5.640625 -8.882812 4.171875 -7.941406 2.734375 -7.140625 L -0.109375 -3.390625 C 0.0546875 -3.390625 0.210938 -3.382812 0.359375 -3.375 C 0.503906 -3.375 0.640625 -3.375 0.765625 -3.375 C 2.117188 -3.375 3.472656 -3.429688 4.828125 -3.546875 C 6.191406 -3.671875 7.570312 -3.898438 8.96875 -4.234375 C 10.375 -4.578125 11.796875 -5.070312 13.234375 -5.71875 C 14.679688 -6.363281 16.148438 -7.210938 17.640625 -8.265625 C 17.753906 -8.359375 17.898438 -8.40625 18.078125 -8.40625 Z M 5.453125 -10.609375 C 6.859375 -11.566406 8.289062 -12.671875 9.75 -13.921875 C 11.21875 -15.171875 12.664062 -16.484375 14.09375 -17.859375 C 15.519531 -19.242188 16.890625 -20.632812 18.203125 -22.03125 C 19.515625 -23.425781 20.722656 -24.765625 21.828125 -26.046875 C 22.929688 -27.335938 23.894531 -28.503906 24.71875 -29.546875 C 25.550781 -30.585938 26.191406 -31.453125 26.640625 -32.140625 C 27.097656 -32.828125 27.328125 -33.269531 27.328125 -33.46875 C 27.328125 -33.570312 27.28125 -33.625 27.1875 -33.625 C 26.800781 -33.625 26.226562 -33.347656 25.46875 -32.796875 C 24.707031 -32.242188 23.816406 -31.484375 22.796875 -30.515625 C 21.773438 -29.546875 20.675781 -28.425781 19.5 -27.15625 C 18.320312 -25.894531 17.097656 -24.546875 15.828125 -23.109375 C 14.566406 -21.671875 13.3125 -20.210938 12.0625 -18.734375 C 10.820312 -17.265625 9.632812 -15.832031 8.5 -14.4375 C 7.375 -13.050781 6.359375 -11.773438 5.453125 -10.609375 Z M 5.453125 -10.609375 "/></g></g></g><g fill="#9e0000" fill-opacity="1"><g transform="translate(65.865196, 62.823222)"><g><path d="M 21.375 -8.40625 C 21.582031 -8.40625 21.757812 -8.332031 21.90625 -8.1875 C 22.050781 -8.039062 22.125 -7.863281 22.125 -7.65625 C 22.125 -7.394531 22.019531 -7.195312 21.8125 -7.0625 C 20.476562 -6.09375 19.070312 -5.207031 17.59375 -4.40625 C 16.125 -3.601562 14.65625 -2.898438 13.1875 -2.296875 C 11.726562 -1.691406 10.34375 -1.1875 9.03125 -0.78125 C 7.71875 -0.375 6.550781 -0.0664062 5.53125 0.140625 C 4.507812 0.359375 3.707031 0.46875 3.125 0.46875 C 1.664062 0.46875 0.535156 0.203125 -0.265625 -0.328125 C -1.078125 -0.867188 -1.484375 -1.628906 -1.484375 -2.609375 C -1.484375 -3.253906 -1.3125 -3.941406 -0.96875 -4.671875 C -0.632812 -5.410156 -0.1875 -6.128906 0.375 -6.828125 C 0.9375 -7.523438 1.566406 -8.160156 2.265625 -8.734375 C 2.960938 -9.304688 3.671875 -9.757812 4.390625 -10.09375 C 5.117188 -10.4375 5.8125 -10.609375 6.46875 -10.609375 C 7.039062 -10.609375 7.503906 -10.453125 7.859375 -10.140625 C 8.210938 -9.835938 8.390625 -9.441406 8.390625 -8.953125 C 8.390625 -8.597656 8.265625 -8.25 8.015625 -7.90625 C 7.773438 -7.570312 7.453125 -7.265625 7.046875 -6.984375 C 6.640625 -6.703125 6.195312 -6.472656 5.71875 -6.296875 C 5.25 -6.128906 4.769531 -6.046875 4.28125 -6.046875 C 3.332031 -6.046875 2.566406 -6.171875 1.984375 -6.421875 C 1.367188 -5.742188 0.882812 -5.066406 0.53125 -4.390625 C 0.175781 -3.710938 0 -3.117188 0 -2.609375 C 0 -1.546875 1.039062 -1.015625 3.125 -1.015625 C 3.664062 -1.015625 4.414062 -1.113281 5.375 -1.3125 C 6.34375 -1.507812 7.445312 -1.804688 8.6875 -2.203125 C 9.9375 -2.597656 11.257812 -3.085938 12.65625 -3.671875 C 14.0625 -4.265625 15.472656 -4.941406 16.890625 -5.703125 C 18.304688 -6.472656 19.65625 -7.328125 20.9375 -8.265625 C 21.050781 -8.359375 21.195312 -8.40625 21.375 -8.40625 Z M 6.890625 -8.953125 C 6.890625 -9.003906 6.863281 -9.039062 6.8125 -9.0625 C 6.769531 -9.09375 6.65625 -9.109375 6.46875 -9.109375 C 6.03125 -9.109375 5.53125 -8.976562 4.96875 -8.71875 C 4.40625 -8.457031 3.828125 -8.082031 3.234375 -7.59375 C 3.523438 -7.550781 3.875 -7.53125 4.28125 -7.53125 C 4.8125 -7.53125 5.269531 -7.617188 5.65625 -7.796875 C 6.039062 -7.972656 6.34375 -8.171875 6.5625 -8.390625 C 6.78125 -8.609375 6.890625 -8.796875 6.890625 -8.953125 Z M 6.890625 -8.953125 "/></g></g></g></g></g><g clip-path="url(#cd7d10963f)"><path fill="#002196" d="M 49.382812 23.359375 C 49.371094 23.472656 49.355469 23.582031 49.332031 23.6875 C 49.34375 23.6875 49.359375 23.683594 49.371094 23.679688 C 49.4375 23.667969 49.507812 23.660156 49.574219 23.648438 C 49.515625 23.550781 49.453125 23.453125 49.382812 23.359375 Z M 47.519531 22.296875 C 46.972656 22.296875 46.390625 22.640625 46.070312 23.160156 C 45.800781 23.59375 45.761719 24.058594 45.960938 24.441406 C 45.96875 24.460938 45.980469 24.480469 45.988281 24.5 C 46.976562 24.214844 47.984375 23.941406 49 23.75 C 49.066406 23.527344 49.097656 23.28125 49.082031 23.007812 C 48.664062 22.597656 48.136719 22.308594 47.542969 22.296875 C 47.535156 22.296875 47.527344 22.296875 47.519531 22.296875 Z M 46.191406 24.757812 C 46.359375 24.925781 46.574219 25.046875 46.824219 25.113281 C 47.28125 25.238281 47.796875 25.160156 48.175781 24.914062 C 48.355469 24.796875 48.660156 24.507812 48.867188 24.085938 C 47.96875 24.265625 47.070312 24.507812 46.191406 24.757812 Z M 28.875 23.765625 C 29.050781 24.445312 29.527344 25.101562 30.199219 25.550781 C 30.570312 25.796875 30.976562 25.980469 31.382812 26.113281 C 31.265625 25.304688 31.023438 24.402344 30.324219 23.964844 C 29.964844 23.742188 29.4375 23.550781 29.027344 23.691406 C 28.972656 23.710938 28.921875 23.734375 28.875 23.765625 Z M 31.703125 26.207031 C 32.207031 26.34375 32.703125 26.417969 33.136719 26.46875 C 36.027344 26.800781 38.902344 26.214844 41.683594 25.648438 C 42.871094 25.40625 44.054688 25.0625 45.203125 24.726562 C 45.363281 24.679688 45.527344 24.632812 45.6875 24.585938 C 45.6875 24.585938 45.6875 24.585938 45.6875 24.582031 C 45.4375 24.101562 45.484375 23.523438 45.808594 23 C 46.191406 22.386719 46.859375 21.992188 47.519531 21.992188 C 47.53125 21.992188 47.539062 21.992188 47.550781 21.992188 C 48.101562 22.003906 48.585938 22.207031 48.992188 22.515625 C 48.949219 22.375 48.894531 22.230469 48.820312 22.082031 C 48.5 21.425781 48.070312 21.074219 47.5 20.648438 C 46.894531 20.199219 46.175781 19.824219 45.300781 19.511719 C 43.59375 18.894531 41.785156 18.671875 40.402344 18.542969 C 39.035156 18.417969 34.3125 18.183594 30.835938 20.335938 C 29.953125 20.882812 28.886719 21.792969 28.800781 23.03125 C 28.789062 23.171875 28.796875 23.308594 28.8125 23.449219 C 28.847656 23.433594 28.886719 23.417969 28.925781 23.402344 C 29.359375 23.253906 29.945312 23.367188 30.488281 23.707031 C 31.332031 24.234375 31.585938 25.300781 31.703125 26.207031 Z M 28.503906 24.332031 C 28.386719 24.792969 28.484375 25.339844 28.574219 25.820312 L 28.613281 26.039062 C 28.691406 26.496094 28.761719 26.925781 28.828125 27.339844 C 28.996094 28.378906 29.15625 29.355469 29.421875 30.421875 C 29.707031 31.578125 30.054688 32.613281 30.460938 33.539062 C 30.691406 33.402344 30.890625 33.234375 31.023438 33.015625 C 31.269531 32.621094 31.351562 32.128906 31.40625 31.703125 C 31.628906 30.042969 31.636719 28.273438 31.425781 26.445312 C 30.949219 26.300781 30.46875 26.097656 30.03125 25.804688 C 29.351562 25.351562 28.859375 24.707031 28.628906 24.019531 C 28.597656 24.070312 28.570312 24.132812 28.546875 24.199219 C 28.53125 24.242188 28.515625 24.285156 28.503906 24.332031 Z M 48.921875 33.230469 C 49.425781 33.230469 49.878906 33.300781 50.191406 33.367188 C 51.105469 33.558594 51.972656 33.832031 52.898438 34.226562 C 54.738281 32.527344 55.738281 29.929688 55.410156 27.429688 C 55.257812 26.296875 54.757812 25.410156 53.914062 24.789062 C 52.945312 24.074219 51.5625 23.761719 50.046875 23.898438 C 50.101562 24.019531 50.144531 24.144531 50.183594 24.261719 C 50.527344 25.398438 50.394531 26.597656 50.210938 27.824219 C 49.996094 29.265625 49.574219 31.265625 48.753906 33.230469 C 48.808594 33.230469 48.867188 33.230469 48.921875 33.230469 Z M 48.25 33.585938 C 47.921875 33.636719 47.621094 33.722656 47.355469 33.839844 C 46.691406 34.144531 46.285156 34.53125 46.238281 34.898438 C 46.207031 35.148438 46.339844 35.394531 46.636719 35.632812 C 46.738281 35.714844 46.851562 35.789062 46.972656 35.847656 C 47.445312 35.171875 47.871094 34.414062 48.25 33.585938 Z M 47.277344 35.976562 C 48.550781 36.398438 50.414062 35.863281 51.515625 35.238281 C 51.917969 35.011719 52.296875 34.746094 52.644531 34.449219 C 51.792969 34.09375 50.992188 33.847656 50.125 33.667969 C 49.605469 33.554688 49.09375 33.515625 48.617188 33.546875 C 48.25 34.382812 47.808594 35.207031 47.277344 35.976562 Z M 30.585938 33.816406 C 31.9375 36.703125 33.941406 38.429688 36.835938 39.269531 C 39.703125 40.097656 42.214844 39.84375 44.300781 38.507812 C 45.21875 37.917969 46.054688 37.105469 46.792969 36.101562 C 46.667969 36.035156 46.550781 35.960938 46.441406 35.871094 C 45.964844 35.484375 45.902344 35.105469 45.933594 34.859375 C 45.996094 34.378906 46.457031 33.917969 47.230469 33.5625 C 47.609375 33.390625 48.007812 33.296875 48.398438 33.257812 C 49.089844 31.65625 49.605469 29.808594 49.90625 27.777344 C 50.085938 26.585938 50.21875 25.425781 49.890625 24.351562 C 49.847656 24.214844 49.792969 24.074219 49.726562 23.9375 C 49.625 23.949219 49.523438 23.964844 49.421875 23.984375 C 49.359375 23.992188 49.296875 24.003906 49.234375 24.015625 C 49.03125 24.550781 48.671875 24.957031 48.339844 25.171875 C 47.894531 25.460938 47.28125 25.550781 46.746094 25.410156 C 46.386719 25.3125 46.082031 25.121094 45.863281 24.851562 C 45.671875 24.910156 45.480469 24.964844 45.289062 25.019531 C 44.136719 25.355469 42.945312 25.703125 41.757812 25.945312 C 38.941406 26.519531 36.039062 27.109375 33.101562 26.773438 C 32.6875 26.722656 32.21875 26.65625 31.742188 26.535156 C 31.941406 28.34375 31.933594 30.09375 31.710938 31.742188 C 31.648438 32.203125 31.5625 32.730469 31.285156 33.175781 C 31.117188 33.453125 30.867188 33.65625 30.585938 33.816406 Z M 31.949219 41.882812 C 31.945312 41.882812 31.945312 41.882812 31.941406 41.882812 C 31.417969 41.886719 31.027344 42.375 30.851562 42.792969 C 30.671875 43.222656 30.671875 43.601562 30.847656 43.945312 C 31.328125 43.746094 31.765625 43.429688 32.144531 42.964844 C 32.34375 42.714844 32.554688 42.253906 32.316406 42.011719 C 32.234375 41.929688 32.097656 41.882812 31.949219 41.882812 Z M 31.023438 44.203125 C 32.554688 46.054688 39.390625 46.214844 41.941406 46.117188 C 48.535156 45.867188 53.816406 43.652344 56.125 41.570312 C 57.023438 40.753906 57.4375 39.800781 57.3125 38.804688 C 57.15625 37.507812 56.078125 36.183594 54.507812 35.34375 C 53.957031 35.050781 53.445312 34.796875 52.960938 34.585938 C 52.5625 34.933594 52.132812 35.242188 51.667969 35.503906 C 50.558594 36.132812 48.519531 36.769531 47.09375 36.238281 C 46.378906 37.214844 45.515625 38.089844 44.464844 38.765625 C 42.304688 40.152344 39.707031 40.417969 36.75 39.5625 C 33.765625 38.695312 31.699219 36.921875 30.3125 33.953125 C 29.972656 34.105469 29.609375 34.207031 29.285156 34.300781 L 27.964844 34.683594 C 27.367188 34.855469 26.773438 35.027344 26.179688 35.199219 C 23.621094 35.929688 22.019531 37.199219 21.792969 38.679688 C 21.605469 39.894531 22.382812 41.175781 23.925781 42.191406 C 25.011719 42.90625 28.175781 44.78125 30.558594 44.046875 C 30.359375 43.632812 30.363281 43.171875 30.570312 42.671875 C 30.78125 42.167969 31.265625 41.578125 31.941406 41.574219 C 32.171875 41.574219 32.390625 41.652344 32.53125 41.796875 C 32.890625 42.15625 32.703125 42.753906 32.382812 43.15625 C 31.984375 43.648438 31.523438 43.988281 31.023438 44.203125 Z M 40.777344 46.441406 C 38.195312 46.441406 32.144531 46.230469 30.722656 44.320312 C 28.203125 45.148438 24.890625 43.195312 23.757812 42.445312 C 22.109375 41.359375 21.285156 39.96875 21.492188 38.632812 C 21.738281 37.027344 23.414062 35.671875 26.09375 34.90625 C 26.691406 34.734375 27.285156 34.5625 27.878906 34.386719 L 29.203125 34.003906 C 29.527344 33.914062 29.875 33.816406 30.1875 33.675781 C 29.769531 32.734375 29.417969 31.675781 29.125 30.492188 C 28.855469 29.417969 28.695312 28.433594 28.527344 27.390625 C 28.460938 26.972656 28.390625 26.542969 28.3125 26.089844 L 28.273438 25.878906 C 28.179688 25.363281 28.074219 24.78125 28.207031 24.253906 C 28.222656 24.199219 28.238281 24.144531 28.257812 24.09375 C 28.324219 23.914062 28.417969 23.765625 28.535156 23.648438 C 28.492188 23.433594 28.480469 23.222656 28.496094 23.011719 C 28.589844 21.640625 29.730469 20.660156 30.671875 20.078125 C 34.230469 17.871094 39.039062 18.113281 40.429688 18.238281 C 41.832031 18.367188 43.667969 18.59375 45.40625 19.222656 C 46.308594 19.546875 47.050781 19.933594 47.679688 20.402344 C 48.265625 20.839844 48.746094 21.230469 49.097656 21.949219 C 49.25 22.265625 49.339844 22.574219 49.371094 22.863281 C 49.582031 23.089844 49.761719 23.34375 49.90625 23.605469 C 51.539062 23.433594 53.042969 23.765625 54.09375 24.542969 C 55.007812 25.214844 55.550781 26.171875 55.710938 27.386719 C 56.050781 29.945312 55.050781 32.59375 53.203125 34.359375 C 53.664062 34.566406 54.144531 34.800781 54.652344 35.074219 C 56.308594 35.957031 57.445312 37.375 57.617188 38.765625 C 57.753906 39.863281 57.304688 40.910156 56.328125 41.796875 C 53.980469 43.917969 48.621094 46.171875 41.953125 46.425781 C 41.929688 46.425781 41.484375 46.441406 40.777344 46.441406 " fill-opacity="1" fill-rule="nonzero"/></g><g transform="matrix(1, 0, 0, 1, 62, 74)"><g clip-path="url(#b1fff9a5a9)"><g fill="#002196" fill-opacity="1"><g transform="translate(1.038608, 8.971509)"><g><path d="M 2.6875 -4.90625 L 1.1875 -4.078125 L 1.375 -3.953125 L 1.96875 -4.21875 L 1.265625 -0.984375 C 1.234375 -0.804688 1.164062 -0.71875 1.0625 -0.71875 L 0.453125 -0.625 L 0.203125 -0.40625 L 2.59375 -0.40625 L 2.78125 -0.625 C 2.550781 -0.65625 2.3125 -0.6875 2.0625 -0.71875 C 1.976562 -0.726562 1.925781 -0.765625 1.90625 -0.828125 C 1.875 -0.910156 1.898438 -1.140625 1.984375 -1.515625 Z M 2.6875 -4.90625 "/></g></g></g><g fill="#002196" fill-opacity="1"><g transform="translate(10.446055, 8.971509)"><g><path d="M 2.6875 -4.90625 L 1.1875 -4.078125 L 1.375 -3.953125 L 1.96875 -4.21875 L 1.265625 -0.984375 C 1.234375 -0.804688 1.164062 -0.71875 1.0625 -0.71875 L 0.453125 -0.625 L 0.203125 -0.40625 L 2.59375 -0.40625 L 2.78125 -0.625 C 2.550781 -0.65625 2.3125 -0.6875 2.0625 -0.71875 C 1.976562 -0.726562 1.925781 -0.765625 1.90625 -0.828125 C 1.875 -0.910156 1.898438 -1.140625 1.984375 -1.515625 Z M 2.6875 -4.90625 "/></g></g></g><g fill="#002196" fill-opacity="1"><g transform="translate(19.853502, 8.971509)"><g><path d="M 2.6875 -4.90625 L 1.1875 -4.078125 L 1.375 -3.953125 L 1.96875 -4.21875 L 1.265625 -0.984375 C 1.234375 -0.804688 1.164062 -0.71875 1.0625 -0.71875 L 0.453125 -0.625 L 0.203125 -0.40625 L 2.59375 -0.40625 L 2.78125 -0.625 C 2.550781 -0.65625 2.3125 -0.6875 2.0625 -0.71875 C 1.976562 -0.726562 1.925781 -0.765625 1.90625 -0.828125 C 1.875 -0.910156 1.898438 -1.140625 1.984375 -1.515625 Z M 2.6875 -4.90625 "/></g></g></g><g fill="#002196" fill-opacity="1"><g transform="translate(29.260948, 8.971509)"><g><path d="M 0.984375 -5.265625 C 0.960938 -5.265625 0.925781 -5.265625 0.875 -5.265625 C 0.75 -4.960938 0.628906 -4.664062 0.515625 -4.375 C 0.515625 -4.351562 0.519531 -4.332031 0.53125 -4.3125 L 2.75 -4.3125 C 1.820312 -3.289062 1.046875 -2.3125 0.421875 -1.375 C 0.316406 -1.21875 0.257812 -1.0625 0.25 -0.90625 C 0.238281 -0.769531 0.253906 -0.59375 0.296875 -0.375 L 1.09375 -0.578125 C 1.007812 -0.898438 0.984375 -1.148438 1.015625 -1.328125 C 1.046875 -1.503906 1.128906 -1.707031 1.265625 -1.9375 C 1.460938 -2.269531 1.710938 -2.625 2.015625 -3 C 2.523438 -3.625 3.023438 -4.234375 3.515625 -4.828125 L 1.484375 -4.828125 C 1.335938 -4.835938 1.222656 -4.875 1.140625 -4.9375 C 1.046875 -5.007812 0.992188 -5.117188 0.984375 -5.265625 Z M 0.984375 -5.265625 "/></g></g></g></g></g></svg>