<svg xmlns="http://www.w3.org/2000/svg" xmlns:xlink="http://www.w3.org/1999/xlink" width="180" zoomAndPan="magnify" viewBox="0 0 135 135.000003" height="180" preserveAspectRatio="xMidYMid meet" version="1.0"><defs><g/><clipPath id="65c26ecf24"><rect x="0" width="109" y="0" height="127"/></clipPath><clipPath id="afb53d2a6f"><path d="M 17 19.339844 L 60.796875 19.339844 L 60.796875 53.585938 L 17 53.585938 Z M 17 19.339844 " clip-rule="nonzero"/></clipPath><clipPath id="01b888af0f"><path d="M 0.160156 4 L 4 4 L 4 11 L 0.160156 11 Z M 0.160156 4 " clip-rule="nonzero"/></clipPath><clipPath id="362fa657c6"><rect x="0" width="47" y="0" height="14"/></clipPath></defs><g transform="matrix(1, 0, 0, 1, 15, -0.000000000000003367)"><g clip-path="url(#65c26ecf24)"><g fill="#ffffff" fill-opacity="1"><g transform="translate(3.248967, 79.023013)"><g><path d="M 3.078125 0.765625 C -0.242188 0.765625 -1.90625 -0.40625 -1.90625 -2.75 C -1.90625 -2.976562 -1.890625 -3.191406 -1.859375 -3.390625 C -1.835938 -3.585938 -1.8125 -3.769531 -1.78125 -3.9375 C -1.644531 -4.71875 -1.347656 -5.519531 -0.890625 -6.34375 C -0.429688 -7.164062 0.132812 -7.953125 0.8125 -8.703125 C 1.488281 -9.460938 2.21875 -10.140625 3 -10.734375 C 3.789062 -11.335938 4.582031 -11.8125 5.375 -12.15625 C 6.164062 -12.507812 6.914062 -12.6875 7.625 -12.6875 C 8.320312 -12.6875 8.875 -12.507812 9.28125 -12.15625 C 9.695312 -11.800781 9.90625 -11.332031 9.90625 -10.75 C 9.90625 -10.300781 9.789062 -9.820312 9.5625 -9.3125 C 9.332031 -8.800781 9.019531 -8.316406 8.625 -7.859375 C 8.238281 -7.410156 7.804688 -7.046875 7.328125 -6.765625 C 7.171875 -6.679688 7.015625 -6.640625 6.859375 -6.640625 C 6.609375 -6.640625 6.394531 -6.722656 6.21875 -6.890625 C 6.050781 -7.066406 5.96875 -7.28125 5.96875 -7.53125 C 5.96875 -7.875 6.117188 -8.128906 6.421875 -8.296875 C 6.703125 -8.460938 6.96875 -8.679688 7.21875 -8.953125 C 7.476562 -9.222656 7.691406 -9.507812 7.859375 -9.8125 C 8.023438 -10.113281 8.109375 -10.363281 8.109375 -10.5625 C 8.140625 -10.789062 7.976562 -10.90625 7.625 -10.90625 C 7.101562 -10.90625 6.519531 -10.75 5.875 -10.4375 C 5.226562 -10.132812 4.582031 -9.726562 3.9375 -9.21875 C 3.289062 -8.707031 2.6875 -8.132812 2.125 -7.5 C 1.5625 -6.863281 1.085938 -6.207031 0.703125 -5.53125 C 0.316406 -4.863281 0.0664062 -4.234375 -0.046875 -3.640625 C -0.0976562 -3.328125 -0.125 -3.03125 -0.125 -2.75 C -0.125 -2.101562 0.101562 -1.648438 0.5625 -1.390625 C 1.03125 -1.140625 1.867188 -1.015625 3.078125 -1.015625 C 4.492188 -1.015625 6.128906 -1.234375 7.984375 -1.671875 C 9.847656 -2.109375 11.820312 -2.722656 13.90625 -3.515625 C 16 -4.304688 18.113281 -5.25 20.25 -6.34375 C 22.394531 -7.4375 24.457031 -8.625 26.4375 -9.90625 C 26.582031 -10.007812 26.75 -10.0625 26.9375 -10.0625 C 27.1875 -10.0625 27.394531 -9.972656 27.5625 -9.796875 C 27.738281 -9.628906 27.828125 -9.421875 27.828125 -9.171875 C 27.828125 -8.816406 27.6875 -8.566406 27.40625 -8.421875 C 25.375 -7.085938 23.25 -5.859375 21.03125 -4.734375 C 18.820312 -3.609375 16.625 -2.632812 14.4375 -1.8125 C 12.257812 -1 10.195312 -0.367188 8.25 0.078125 C 6.300781 0.535156 4.578125 0.765625 3.078125 0.765625 Z M 3.078125 0.765625 "/></g></g></g><g fill="#ffffff" fill-opacity="1"><g transform="translate(27.655005, 79.023013)"><g><path d="M 35.28125 -10.0625 C 35.507812 -10.0625 35.710938 -9.96875 35.890625 -9.78125 C 36.078125 -9.601562 36.171875 -9.398438 36.171875 -9.171875 C 36.171875 -8.859375 36.039062 -8.609375 35.78125 -8.421875 C 34.519531 -7.535156 33.128906 -6.660156 31.609375 -5.796875 C 30.097656 -4.941406 28.546875 -4.144531 26.953125 -3.40625 C 25.367188 -2.664062 23.820312 -2.015625 22.3125 -1.453125 C 20.800781 -0.898438 19.425781 -0.460938 18.1875 -0.140625 C 16.945312 0.171875 15.921875 0.328125 15.109375 0.328125 C 13.722656 0.328125 12.660156 0.0195312 11.921875 -0.59375 C 11.191406 -1.207031 10.828125 -2.09375 10.828125 -3.25 C 10.828125 -4.1875 11.046875 -5.140625 11.484375 -6.109375 C 11.921875 -7.085938 12.421875 -8.023438 12.984375 -8.921875 C 13.117188 -9.140625 13.144531 -9.28125 13.0625 -9.34375 C 12.988281 -9.40625 12.851562 -9.363281 12.65625 -9.21875 C 12.488281 -9.101562 12.320312 -8.984375 12.15625 -8.859375 C 12 -8.734375 11.828125 -8.601562 11.640625 -8.46875 C 10.703125 -7.789062 9.679688 -7.0625 8.578125 -6.28125 C 7.484375 -5.5 6.367188 -4.726562 5.234375 -3.96875 C 4.109375 -3.21875 3.007812 -2.53125 1.9375 -1.90625 C 0.863281 -1.289062 -0.128906 -0.796875 -1.046875 -0.421875 C -1.960938 -0.0546875 -2.742188 0.125 -3.390625 0.125 C -4.066406 0.125 -4.613281 -0.0546875 -5.03125 -0.421875 C -5.445312 -0.785156 -5.65625 -1.273438 -5.65625 -1.890625 C -5.65625 -2.546875 -5.394531 -3.253906 -4.875 -4.015625 C -4.363281 -4.773438 -3.679688 -5.539062 -2.828125 -6.3125 C -1.984375 -7.09375 -1.039062 -7.835938 0 -8.546875 C 1.039062 -9.253906 2.09375 -9.890625 3.15625 -10.453125 C 4.21875 -11.015625 5.222656 -11.457031 6.171875 -11.78125 C 7.128906 -12.101562 7.929688 -12.265625 8.578125 -12.265625 C 9.367188 -12.265625 10.003906 -12.144531 10.484375 -11.90625 C 10.972656 -11.664062 11.382812 -11.273438 11.71875 -10.734375 C 12.65625 -11.410156 13.394531 -11.929688 13.9375 -12.296875 C 14.476562 -12.671875 14.894531 -12.925781 15.1875 -13.0625 C 15.488281 -13.207031 15.726562 -13.28125 15.90625 -13.28125 C 16.207031 -13.28125 16.457031 -13.179688 16.65625 -12.984375 C 16.863281 -12.785156 16.96875 -12.535156 16.96875 -12.234375 C 16.96875 -11.953125 16.851562 -11.617188 16.625 -11.234375 C 16.394531 -10.847656 16.082031 -10.363281 15.6875 -9.78125 C 15.257812 -9.15625 14.804688 -8.46875 14.328125 -7.71875 C 13.847656 -6.96875 13.441406 -6.207031 13.109375 -5.4375 C 12.773438 -4.664062 12.609375 -3.9375 12.609375 -3.25 C 12.609375 -2.613281 12.800781 -2.15625 13.1875 -1.875 C 13.582031 -1.601562 14.222656 -1.46875 15.109375 -1.46875 C 15.804688 -1.46875 16.722656 -1.601562 17.859375 -1.875 C 19.003906 -2.15625 20.285156 -2.550781 21.703125 -3.0625 C 23.128906 -3.582031 24.601562 -4.191406 26.125 -4.890625 C 27.65625 -5.597656 29.160156 -6.367188 30.640625 -7.203125 C 32.128906 -8.046875 33.503906 -8.941406 34.765625 -9.890625 C 34.898438 -10.003906 35.070312 -10.0625 35.28125 -10.0625 Z M 10.265625 -9.6875 C 10.078125 -10.019531 9.875 -10.234375 9.65625 -10.328125 C 9.445312 -10.429688 9.085938 -10.484375 8.578125 -10.484375 C 7.960938 -10.484375 7.226562 -10.328125 6.375 -10.015625 C 5.53125 -9.710938 4.640625 -9.304688 3.703125 -8.796875 C 2.765625 -8.296875 1.847656 -7.738281 0.953125 -7.125 C 0.0664062 -6.519531 -0.734375 -5.90625 -1.453125 -5.28125 C -2.179688 -4.65625 -2.765625 -4.0625 -3.203125 -3.5 C -3.640625 -2.9375 -3.859375 -2.460938 -3.859375 -2.078125 C -3.859375 -1.796875 -3.703125 -1.65625 -3.390625 -1.65625 C -2.597656 -1.65625 -1.53125 -2.007812 -0.1875 -2.71875 C 1.15625 -3.4375 2.710938 -4.398438 4.484375 -5.609375 C 6.265625 -6.828125 8.191406 -8.1875 10.265625 -9.6875 Z M 10.265625 -9.6875 "/></g></g></g><g fill="#ffffff" fill-opacity="1"><g transform="translate(60.411151, 79.023013)"><g><path d="M 21.625 -10.0625 C 21.875 -10.0625 22.085938 -9.972656 22.265625 -9.796875 C 22.441406 -9.628906 22.53125 -9.421875 22.53125 -9.171875 C 22.53125 -8.859375 22.394531 -8.609375 22.125 -8.421875 C 20.238281 -7.097656 18.378906 -6.023438 16.546875 -5.203125 C 14.710938 -4.390625 12.910156 -3.769531 11.140625 -3.34375 C 9.378906 -2.914062 7.644531 -2.625 5.9375 -2.46875 C 4.226562 -2.320312 2.554688 -2.25 0.921875 -2.25 C 0.609375 -2.25 0.253906 -2.257812 -0.140625 -2.28125 C -0.546875 -2.3125 -0.960938 -2.34375 -1.390625 -2.375 C -3.585938 0.5625 -5.742188 3.488281 -7.859375 6.40625 C -9.972656 9.332031 -11.988281 12.179688 -13.90625 14.953125 C -15.832031 17.734375 -17.617188 20.367188 -19.265625 22.859375 C -20.910156 25.359375 -22.359375 27.648438 -23.609375 29.734375 C -23.429688 29.953125 -23.445312 30.257812 -23.65625 30.65625 C -24.65625 32.550781 -25.492188 33.5 -26.171875 33.5 C -26.566406 33.5 -26.835938 33.375 -26.984375 33.125 C -27.128906 32.875 -27.140625 32.546875 -27.015625 32.140625 C -26.972656 32.003906 -26.914062 31.863281 -26.84375 31.71875 C -26.769531 31.582031 -26.691406 31.441406 -26.609375 31.296875 C -25.441406 29.273438 -24.03125 26.976562 -22.375 24.40625 C -20.71875 21.832031 -18.878906 19.070312 -16.859375 16.125 C -14.835938 13.175781 -12.6875 10.113281 -10.40625 6.9375 C -8.125 3.769531 -5.785156 0.585938 -3.390625 -2.609375 C -4.617188 -2.785156 -5.953125 -3.039062 -7.390625 -3.375 C -8.828125 -3.71875 -10.269531 -4.144531 -11.71875 -4.65625 C -12.132812 -4.789062 -12.34375 -5.070312 -12.34375 -5.5 C -12.34375 -5.75 -12.253906 -5.957031 -12.078125 -6.125 C -11.898438 -6.300781 -11.691406 -6.390625 -11.453125 -6.390625 C -11.378906 -6.390625 -11.316406 -6.382812 -11.265625 -6.375 C -11.222656 -6.375 -11.175781 -6.363281 -11.125 -6.34375 C -9.507812 -5.78125 -7.925781 -5.328125 -6.375 -4.984375 C -4.832031 -4.648438 -3.4375 -4.410156 -2.1875 -4.265625 C -1.488281 -5.191406 -0.785156 -6.113281 -0.078125 -7.03125 C 0.617188 -7.945312 1.320312 -8.847656 2.03125 -9.734375 C 2.03125 -9.847656 2.085938 -9.929688 2.203125 -9.984375 L 2.234375 -10.015625 C 6.109375 -15.035156 9.695312 -19.519531 13 -23.46875 C 16.3125 -27.425781 19.269531 -30.789062 21.875 -33.5625 C 24.488281 -36.332031 26.695312 -38.4375 28.5 -39.875 C 30.300781 -41.320312 31.644531 -42.046875 32.53125 -42.046875 C 33.113281 -42.046875 33.585938 -41.878906 33.953125 -41.546875 C 34.328125 -41.222656 34.515625 -40.804688 34.515625 -40.296875 C 34.515625 -39.773438 34.257812 -39.03125 33.75 -38.0625 C 33.238281 -37.101562 32.507812 -35.972656 31.5625 -34.671875 C 30.625 -33.378906 29.519531 -31.976562 28.25 -30.46875 C 26.976562 -28.957031 25.578125 -27.382812 24.046875 -25.75 C 22.515625 -24.125 20.894531 -22.5 19.1875 -20.875 C 17.476562 -19.25 15.726562 -17.675781 13.9375 -16.15625 C 12.144531 -14.632812 10.347656 -13.222656 8.546875 -11.921875 C 6.742188 -10.628906 4.984375 -9.503906 3.265625 -8.546875 L -0.125 -4.0625 C 0.0703125 -4.0625 0.253906 -4.054688 0.421875 -4.046875 C 0.597656 -4.035156 0.765625 -4.03125 0.921875 -4.03125 C 2.535156 -4.03125 4.15625 -4.097656 5.78125 -4.234375 C 7.40625 -4.378906 9.054688 -4.65625 10.734375 -5.0625 C 12.410156 -5.46875 14.113281 -6.054688 15.84375 -6.828125 C 17.570312 -7.609375 19.328125 -8.628906 21.109375 -9.890625 C 21.242188 -10.003906 21.414062 -10.0625 21.625 -10.0625 Z M 6.515625 -12.6875 C 8.203125 -13.84375 9.921875 -15.164062 11.671875 -16.65625 C 13.421875 -18.15625 15.148438 -19.726562 16.859375 -21.375 C 18.566406 -23.03125 20.207031 -24.691406 21.78125 -26.359375 C 23.351562 -28.023438 24.796875 -29.625 26.109375 -31.15625 C 27.429688 -32.695312 28.585938 -34.09375 29.578125 -35.34375 C 30.578125 -36.59375 31.347656 -37.628906 31.890625 -38.453125 C 32.429688 -39.273438 32.703125 -39.804688 32.703125 -40.046875 C 32.703125 -40.171875 32.644531 -40.234375 32.53125 -40.234375 C 32.070312 -40.234375 31.382812 -39.898438 30.46875 -39.234375 C 29.5625 -38.578125 28.5 -37.664062 27.28125 -36.5 C 26.0625 -35.34375 24.742188 -34.007812 23.328125 -32.5 C 21.910156 -30.988281 20.445312 -29.375 18.9375 -27.65625 C 17.425781 -25.9375 15.925781 -24.191406 14.4375 -22.421875 C 12.957031 -20.648438 11.539062 -18.9375 10.1875 -17.28125 C 8.832031 -15.625 7.609375 -14.09375 6.515625 -12.6875 Z M 6.515625 -12.6875 "/></g></g></g><g fill="#ffffff" fill-opacity="1"><g transform="translate(79.514765, 79.023013)"><g><path d="M 25.578125 -10.0625 C 25.816406 -10.0625 26.023438 -9.972656 26.203125 -9.796875 C 26.378906 -9.628906 26.46875 -9.421875 26.46875 -9.171875 C 26.46875 -8.859375 26.34375 -8.617188 26.09375 -8.453125 C 24.507812 -7.296875 22.832031 -6.238281 21.0625 -5.28125 C 19.289062 -4.320312 17.53125 -3.476562 15.78125 -2.75 C 14.03125 -2.019531 12.367188 -1.410156 10.796875 -0.921875 C 9.234375 -0.441406 7.835938 -0.078125 6.609375 0.171875 C 5.390625 0.429688 4.429688 0.5625 3.734375 0.5625 C 1.984375 0.5625 0.628906 0.242188 -0.328125 -0.390625 C -1.296875 -1.035156 -1.78125 -1.945312 -1.78125 -3.125 C -1.78125 -3.894531 -1.578125 -4.71875 -1.171875 -5.59375 C -0.765625 -6.46875 -0.222656 -7.320312 0.453125 -8.15625 C 1.128906 -9 1.882812 -9.757812 2.71875 -10.4375 C 3.550781 -11.125 4.398438 -11.671875 5.265625 -12.078125 C 6.128906 -12.484375 6.953125 -12.6875 7.734375 -12.6875 C 8.421875 -12.6875 8.972656 -12.503906 9.390625 -12.140625 C 9.816406 -11.773438 10.03125 -11.296875 10.03125 -10.703125 C 10.03125 -10.285156 9.882812 -9.875 9.59375 -9.46875 C 9.3125 -9.070312 8.925781 -8.703125 8.4375 -8.359375 C 7.945312 -8.023438 7.414062 -7.753906 6.84375 -7.546875 C 6.28125 -7.335938 5.707031 -7.234375 5.125 -7.234375 C 3.988281 -7.234375 3.070312 -7.382812 2.375 -7.6875 C 1.632812 -6.875 1.050781 -6.0625 0.625 -5.25 C 0.207031 -4.4375 0 -3.726562 0 -3.125 C 0 -1.851562 1.242188 -1.21875 3.734375 -1.21875 C 4.378906 -1.21875 5.28125 -1.335938 6.4375 -1.578125 C 7.59375 -1.816406 8.914062 -2.171875 10.40625 -2.640625 C 11.894531 -3.109375 13.476562 -3.691406 15.15625 -4.390625 C 16.832031 -5.097656 18.515625 -5.910156 20.203125 -6.828125 C 21.898438 -7.742188 23.515625 -8.765625 25.046875 -9.890625 C 25.179688 -10.003906 25.359375 -10.0625 25.578125 -10.0625 Z M 8.25 -10.703125 C 8.25 -10.765625 8.21875 -10.8125 8.15625 -10.84375 C 8.101562 -10.882812 7.960938 -10.90625 7.734375 -10.90625 C 7.222656 -10.90625 6.628906 -10.742188 5.953125 -10.421875 C 5.273438 -10.109375 4.578125 -9.664062 3.859375 -9.09375 C 4.210938 -9.039062 4.632812 -9.015625 5.125 -9.015625 C 5.757812 -9.015625 6.304688 -9.117188 6.765625 -9.328125 C 7.222656 -9.535156 7.582031 -9.769531 7.84375 -10.03125 C 8.113281 -10.300781 8.25 -10.523438 8.25 -10.703125 Z M 8.25 -10.703125 "/></g></g></g></g></g><g clip-path="url(#afb53d2a6f)"><path fill="#ffffff" d="M 50.496094 25.9375 C 50.484375 26.074219 50.464844 26.207031 50.4375 26.332031 C 50.453125 26.332031 50.46875 26.328125 50.484375 26.324219 C 50.566406 26.3125 50.648438 26.296875 50.726562 26.285156 C 50.65625 26.167969 50.582031 26.050781 50.496094 25.9375 Z M 48.269531 24.671875 C 47.613281 24.671875 46.917969 25.082031 46.535156 25.703125 C 46.210938 26.21875 46.164062 26.777344 46.402344 27.238281 C 46.414062 27.257812 46.425781 27.28125 46.4375 27.304688 C 47.621094 26.964844 48.824219 26.636719 50.039062 26.40625 C 50.117188 26.140625 50.160156 25.84375 50.136719 25.523438 C 49.640625 25.027344 49.007812 24.683594 48.296875 24.671875 C 48.289062 24.671875 48.277344 24.671875 48.269531 24.671875 Z M 46.679688 27.617188 C 46.878906 27.8125 47.136719 27.960938 47.4375 28.039062 C 47.980469 28.1875 48.601562 28.09375 49.050781 27.800781 C 49.269531 27.660156 49.632812 27.316406 49.882812 26.808594 C 48.804688 27.027344 47.734375 27.316406 46.679688 27.617188 Z M 25.953125 26.425781 C 26.167969 27.238281 26.738281 28.023438 27.542969 28.5625 C 27.988281 28.859375 28.46875 29.074219 28.957031 29.234375 C 28.816406 28.269531 28.527344 27.1875 27.691406 26.667969 C 27.261719 26.398438 26.628906 26.171875 26.136719 26.339844 C 26.070312 26.359375 26.011719 26.390625 25.953125 26.425781 Z M 29.339844 29.347656 C 29.941406 29.511719 30.535156 29.601562 31.054688 29.660156 C 34.515625 30.058594 37.957031 29.355469 41.285156 28.679688 C 42.707031 28.390625 44.125 27.976562 45.496094 27.578125 C 45.6875 27.519531 45.882812 27.464844 46.078125 27.40625 C 46.078125 27.40625 46.074219 27.40625 46.074219 27.40625 C 45.777344 26.828125 45.832031 26.136719 46.222656 25.507812 C 46.679688 24.773438 47.480469 24.304688 48.269531 24.304688 C 48.28125 24.304688 48.292969 24.304688 48.304688 24.304688 C 48.960938 24.316406 49.542969 24.558594 50.027344 24.929688 C 49.980469 24.765625 49.914062 24.589844 49.824219 24.414062 C 49.441406 23.625 48.925781 23.203125 48.242188 22.695312 C 47.519531 22.15625 46.660156 21.710938 45.613281 21.332031 C 43.570312 20.597656 41.40625 20.328125 39.75 20.179688 C 38.117188 20.027344 32.460938 19.746094 28.300781 22.324219 C 27.246094 22.976562 25.96875 24.066406 25.867188 25.550781 C 25.855469 25.714844 25.859375 25.882812 25.882812 26.046875 C 25.925781 26.027344 25.96875 26.007812 26.019531 25.992188 C 26.535156 25.8125 27.238281 25.949219 27.886719 26.355469 C 28.894531 26.988281 29.199219 28.265625 29.339844 29.347656 Z M 25.511719 27.101562 C 25.371094 27.65625 25.492188 28.308594 25.597656 28.886719 L 25.644531 29.144531 C 25.738281 29.691406 25.820312 30.207031 25.902344 30.703125 C 26.101562 31.945312 26.292969 33.117188 26.609375 34.390625 C 26.953125 35.777344 27.367188 37.015625 27.855469 38.121094 C 28.128906 37.960938 28.367188 37.757812 28.53125 37.496094 C 28.820312 37.023438 28.917969 36.4375 28.988281 35.921875 C 29.253906 33.9375 29.257812 31.824219 29.007812 29.632812 C 28.4375 29.460938 27.863281 29.21875 27.339844 28.867188 C 26.527344 28.324219 25.9375 27.550781 25.664062 26.730469 C 25.625 26.792969 25.589844 26.863281 25.5625 26.941406 C 25.542969 26.996094 25.527344 27.046875 25.511719 27.101562 Z M 49.949219 37.753906 C 50.550781 37.753906 51.09375 37.835938 51.464844 37.914062 C 52.5625 38.148438 53.597656 38.472656 54.707031 38.945312 C 56.910156 36.910156 58.105469 33.804688 57.710938 30.808594 C 57.53125 29.457031 56.929688 28.394531 55.921875 27.648438 C 54.761719 26.792969 53.105469 26.421875 51.292969 26.585938 C 51.355469 26.730469 51.410156 26.878906 51.453125 27.023438 C 51.871094 28.378906 51.707031 29.8125 51.488281 31.28125 C 51.230469 33.007812 50.726562 35.398438 49.746094 37.753906 C 49.8125 37.753906 49.882812 37.753906 49.949219 37.753906 Z M 49.140625 38.179688 C 48.75 38.238281 48.390625 38.339844 48.074219 38.484375 C 47.277344 38.847656 46.792969 39.308594 46.734375 39.75 C 46.699219 40.046875 46.855469 40.339844 47.210938 40.628906 C 47.332031 40.726562 47.46875 40.816406 47.613281 40.886719 C 48.175781 40.078125 48.6875 39.171875 49.140625 38.179688 Z M 47.980469 41.039062 C 49.5 41.542969 51.730469 40.90625 53.050781 40.15625 C 53.535156 39.882812 53.984375 39.566406 54.402344 39.214844 C 53.378906 38.789062 52.421875 38.492188 51.390625 38.273438 C 50.765625 38.140625 50.152344 38.09375 49.582031 38.132812 C 49.144531 39.132812 48.617188 40.121094 47.980469 41.039062 Z M 28.003906 38.453125 C 29.621094 41.910156 32.019531 43.976562 35.480469 44.980469 C 38.914062 45.972656 41.917969 45.667969 44.414062 44.066406 C 45.515625 43.363281 46.515625 42.386719 47.398438 41.1875 C 47.25 41.109375 47.109375 41.019531 46.980469 40.910156 C 46.410156 40.449219 46.335938 40 46.371094 39.703125 C 46.445312 39.125 46.996094 38.574219 47.921875 38.152344 C 48.375 37.945312 48.855469 37.832031 49.320312 37.785156 C 50.148438 35.867188 50.761719 33.65625 51.125 31.230469 C 51.339844 29.800781 51.496094 28.414062 51.105469 27.128906 C 51.054688 26.960938 50.988281 26.796875 50.910156 26.632812 C 50.789062 26.648438 50.667969 26.664062 50.546875 26.6875 C 50.472656 26.699219 50.394531 26.710938 50.320312 26.726562 C 50.078125 27.367188 49.648438 27.851562 49.25 28.109375 C 48.714844 28.453125 47.984375 28.5625 47.34375 28.394531 C 46.910156 28.277344 46.546875 28.046875 46.289062 27.726562 C 46.054688 27.792969 45.828125 27.863281 45.597656 27.929688 C 44.21875 28.328125 42.796875 28.746094 41.375 29.035156 C 38 29.722656 34.53125 30.429688 31.015625 30.023438 C 30.519531 29.964844 29.960938 29.886719 29.386719 29.742188 C 29.625 31.90625 29.613281 34 29.347656 35.972656 C 29.277344 36.523438 29.171875 37.15625 28.839844 37.6875 C 28.636719 38.019531 28.339844 38.265625 28.003906 38.453125 Z M 29.632812 48.105469 C 29.632812 48.105469 29.628906 48.105469 29.625 48.105469 C 29 48.109375 28.53125 48.695312 28.324219 49.195312 C 28.109375 49.710938 28.105469 50.164062 28.316406 50.574219 C 28.890625 50.339844 29.417969 49.960938 29.867188 49.402344 C 30.109375 49.101562 30.359375 48.550781 30.074219 48.261719 C 29.976562 48.160156 29.816406 48.105469 29.632812 48.105469 Z M 28.527344 50.886719 C 30.359375 53.101562 38.539062 53.292969 41.589844 53.175781 C 49.484375 52.878906 55.800781 50.226562 58.566406 47.730469 C 59.644531 46.757812 60.136719 45.613281 59.988281 44.421875 C 59.800781 42.871094 58.511719 41.285156 56.632812 40.28125 C 55.972656 39.929688 55.359375 39.628906 54.777344 39.375 C 54.304688 39.789062 53.789062 40.160156 53.234375 40.472656 C 51.90625 41.226562 49.464844 41.988281 47.757812 41.351562 C 46.90625 42.523438 45.871094 43.570312 44.613281 44.375 C 42.027344 46.035156 38.921875 46.355469 35.378906 45.332031 C 31.808594 44.292969 29.332031 42.167969 27.675781 38.617188 C 27.273438 38.796875 26.835938 38.921875 26.445312 39.03125 L 24.867188 39.488281 C 24.152344 39.699219 23.441406 39.90625 22.730469 40.109375 C 19.667969 40.984375 17.753906 42.5 17.480469 44.273438 C 17.257812 45.726562 18.1875 47.257812 20.03125 48.476562 C 21.332031 49.335938 25.121094 51.578125 27.972656 50.699219 C 27.730469 50.203125 27.734375 49.652344 27.988281 49.054688 C 28.238281 48.449219 28.820312 47.746094 29.625 47.738281 C 29.902344 47.738281 30.160156 47.832031 30.332031 48.003906 C 30.761719 48.433594 30.539062 49.148438 30.152344 49.628906 C 29.675781 50.222656 29.125 50.628906 28.527344 50.886719 Z M 40.199219 53.5625 C 37.109375 53.5625 29.867188 53.3125 28.167969 51.023438 C 25.148438 52.015625 21.1875 49.675781 19.832031 48.78125 C 17.863281 47.484375 16.875 45.820312 17.121094 44.214844 C 17.414062 42.296875 19.421875 40.671875 22.628906 39.757812 C 23.339844 39.554688 24.050781 39.347656 24.761719 39.136719 L 26.347656 38.679688 C 26.738281 38.570312 27.152344 38.453125 27.523438 38.285156 C 27.027344 37.160156 26.605469 35.890625 26.253906 34.476562 C 25.933594 33.191406 25.742188 32.011719 25.539062 30.761719 C 25.460938 30.265625 25.378906 29.753906 25.28125 29.207031 L 25.238281 28.953125 C 25.125 28.339844 24.996094 27.644531 25.15625 27.011719 L 25.160156 27.011719 C 25.175781 26.945312 25.195312 26.882812 25.21875 26.816406 C 25.296875 26.605469 25.40625 26.425781 25.546875 26.285156 C 25.5 26.03125 25.484375 25.777344 25.5 25.523438 C 25.613281 23.886719 26.980469 22.710938 28.109375 22.011719 C 32.367188 19.375 38.121094 19.664062 39.785156 19.8125 C 41.464844 19.964844 43.65625 20.238281 45.738281 20.988281 C 46.820312 21.378906 47.707031 21.839844 48.460938 22.402344 C 49.164062 22.921875 49.734375 23.390625 50.15625 24.25 C 50.339844 24.632812 50.445312 25 50.488281 25.347656 C 50.738281 25.617188 50.953125 25.921875 51.121094 26.238281 C 53.078125 26.027344 54.875 26.425781 56.136719 27.355469 C 57.230469 28.160156 57.882812 29.304688 58.074219 30.761719 C 58.476562 33.820312 57.285156 36.988281 55.070312 39.105469 C 55.621094 39.351562 56.195312 39.632812 56.804688 39.960938 C 58.789062 41.019531 60.148438 42.710938 60.355469 44.378906 C 60.515625 45.691406 59.980469 46.945312 58.808594 48.003906 C 56 50.542969 49.589844 53.238281 41.605469 53.542969 C 41.582031 53.542969 41.046875 53.5625 40.199219 53.5625 " fill-opacity="1" fill-rule="nonzero"/></g><g transform="matrix(1, 0, 0, 1, 78, 87)"><g clip-path="url(#362fa657c6)"><g clip-path="url(#01b888af0f)"><g fill="#ffffff" fill-opacity="1"><g transform="translate(0.559265, 10.513586)"><g><path d="M 3.21875 -5.875 L 1.421875 -4.890625 L 1.640625 -4.734375 L 2.359375 -5.046875 L 1.515625 -1.171875 C 1.472656 -0.960938 1.394531 -0.859375 1.28125 -0.859375 L 0.546875 -0.75 L 0.25 -0.484375 L 3.109375 -0.484375 L 3.328125 -0.75 C 3.046875 -0.78125 2.757812 -0.816406 2.46875 -0.859375 C 2.363281 -0.867188 2.300781 -0.910156 2.28125 -0.984375 C 2.25 -1.085938 2.28125 -1.363281 2.375 -1.8125 Z M 3.21875 -5.875 "/></g></g></g></g><g fill="#ffffff" fill-opacity="1"><g transform="translate(11.814999, 10.513586)"><g><path d="M 3.21875 -5.875 L 1.421875 -4.890625 L 1.640625 -4.734375 L 2.359375 -5.046875 L 1.515625 -1.171875 C 1.472656 -0.960938 1.394531 -0.859375 1.28125 -0.859375 L 0.546875 -0.75 L 0.25 -0.484375 L 3.109375 -0.484375 L 3.328125 -0.75 C 3.046875 -0.78125 2.757812 -0.816406 2.46875 -0.859375 C 2.363281 -0.867188 2.300781 -0.910156 2.28125 -0.984375 C 2.25 -1.085938 2.28125 -1.363281 2.375 -1.8125 Z M 3.21875 -5.875 "/></g></g></g><g fill="#ffffff" fill-opacity="1"><g transform="translate(23.070733, 10.513586)"><g><path d="M 3.21875 -5.875 L 1.421875 -4.890625 L 1.640625 -4.734375 L 2.359375 -5.046875 L 1.515625 -1.171875 C 1.472656 -0.960938 1.394531 -0.859375 1.28125 -0.859375 L 0.546875 -0.75 L 0.25 -0.484375 L 3.109375 -0.484375 L 3.328125 -0.75 C 3.046875 -0.78125 2.757812 -0.816406 2.46875 -0.859375 C 2.363281 -0.867188 2.300781 -0.910156 2.28125 -0.984375 C 2.25 -1.085938 2.28125 -1.363281 2.375 -1.8125 Z M 3.21875 -5.875 "/></g></g></g><g fill="#ffffff" fill-opacity="1"><g transform="translate(34.326467, 10.513586)"><g><path d="M 1.171875 -6.296875 C 1.148438 -6.296875 1.109375 -6.296875 1.046875 -6.296875 C 0.890625 -5.929688 0.742188 -5.578125 0.609375 -5.234375 C 0.617188 -5.210938 0.625 -5.191406 0.625 -5.171875 L 3.296875 -5.171875 C 2.179688 -3.941406 1.253906 -2.765625 0.515625 -1.640625 C 0.390625 -1.460938 0.320312 -1.273438 0.3125 -1.078125 C 0.289062 -0.921875 0.300781 -0.710938 0.34375 -0.453125 L 1.3125 -0.6875 C 1.207031 -1.070312 1.175781 -1.367188 1.21875 -1.578125 C 1.257812 -1.796875 1.359375 -2.046875 1.515625 -2.328125 C 1.742188 -2.722656 2.039062 -3.140625 2.40625 -3.578125 C 3.019531 -4.328125 3.625 -5.0625 4.21875 -5.78125 L 1.78125 -5.78125 C 1.601562 -5.789062 1.460938 -5.832031 1.359375 -5.90625 C 1.253906 -5.988281 1.191406 -6.117188 1.171875 -6.296875 Z M 1.171875 -6.296875 "/></g></g></g></g></g></svg>